<svg width="227" height="65" viewBox="0 0 227 65" fill="none" xmlns="http://www.w3.org/2000/svg">
<path d="M28.7305 18.2357C27.4528 18.8839 26.1189 19.3522 24.7289 19.637C23.3388 19.9255 21.9225 20.0679 20.4763 20.0679C18.9401 20.0679 17.52 19.8356 16.2236 19.3672C14.9272 18.8989 13.807 18.2282 12.8628 17.3589C11.9186 16.4859 11.1804 15.4293 10.6521 14.1891C10.1238 12.9489 9.86157 11.5626 9.86157 10.0339C9.86157 8.50524 10.1238 7.11892 10.6521 5.87873C11.1804 4.63854 11.9186 3.58194 12.8628 2.70894C13.807 1.83593 14.9272 1.16526 16.2236 0.700652C17.52 0.232302 18.9401 0 20.4763 0C22.0499 0 23.4999 0.183593 24.8263 0.554527C26.1489 0.921713 27.3142 1.55867 28.3146 2.4579L25.2572 5.69514C24.6652 5.10314 23.9983 4.65353 23.2564 4.34629C22.5145 4.03905 21.5891 3.88918 20.4763 3.88918C19.5508 3.88918 18.7115 4.0428 17.9622 4.34629C17.2128 4.65353 16.5683 5.08066 16.0326 5.6277C15.4968 6.17473 15.0846 6.82667 14.7961 7.58353C14.5076 8.34038 14.3652 9.15718 14.3652 10.0377C14.3652 10.9369 14.5076 11.7612 14.7961 12.5068C15.0846 13.2524 15.4968 13.9006 16.0326 14.4477C16.5683 14.9947 17.2128 15.4218 17.9622 15.7291C18.7115 16.0363 19.5508 16.1862 20.4763 16.1862C21.4205 16.1862 22.2373 16.0813 22.9229 15.8752C23.6086 15.6691 24.1556 15.4556 24.564 15.242V12.1396H21.0345V8.25421H28.7305V18.2357Z" fill="#686B6B"/>
<path d="M49.6152 24.2605H54.561L59.4243 36.7786H59.4805L64.4263 24.2605H69.0648L60.9493 43.3617H57.476L49.6152 24.2605Z" fill="#686B6B"/>
<path d="M11.8586 61.0728L21.8326 49.5814H12.2183V45.8571H27.0856V49.5814L17.3027 61.0728H27.4154V64.9583H11.8586V61.0728Z" fill="#686B6B"/>
<path d="M115.461 23.0391C113.034 24.298 110.321 24.9275 107.32 24.9275C105.802 24.9275 104.405 24.6877 103.138 24.2118C101.868 23.736 100.778 23.0615 99.8598 22.1885C98.9418 21.3155 98.2262 20.2702 97.7054 19.045C97.1883 17.8235 96.9261 16.4634 96.9261 14.9722C96.9261 13.4435 97.1846 12.0534 97.7054 10.8058C98.2224 9.55807 98.9418 8.49023 99.8598 7.60973C100.778 6.72924 101.868 6.05106 103.138 5.57147C104.408 5.09563 105.802 4.85583 107.32 4.85583C108.818 4.85583 110.227 5.03193 111.542 5.38039C112.857 5.73259 114.034 6.35456 115.072 7.25379L112.487 9.79037C111.857 9.19838 111.093 8.73752 110.193 8.4153C109.294 8.09307 108.346 7.92821 107.346 7.92821C106.327 7.92821 105.405 8.10431 104.581 8.45276C103.756 8.80496 103.048 9.2883 102.456 9.91027C101.864 10.5322 101.403 11.2554 101.081 12.0834C100.755 12.9115 100.594 13.7995 100.594 14.7549C100.594 15.7815 100.755 16.7257 101.081 17.5875C101.403 18.4492 101.864 19.1986 102.456 19.8281C103.048 20.4575 103.756 20.9521 104.581 21.3118C105.405 21.6715 106.327 21.8513 107.346 21.8513C108.234 21.8513 109.073 21.7689 109.86 21.6078C110.647 21.4467 111.347 21.1956 111.958 20.8509V16.3473H107.93V13.2712H115.461V23.0391Z" fill="#686B6B"/>
<path d="M127.908 22.6606H127.826C127.343 23.3987 126.732 23.9345 125.994 24.2642C125.252 24.5977 124.439 24.7625 123.547 24.7625C122.936 24.7625 122.337 24.6801 121.756 24.519C121.175 24.3579 120.655 24.1143 120.201 23.7921C119.748 23.4699 119.381 23.0652 119.103 22.5781C118.826 22.091 118.687 21.5253 118.687 20.8771C118.687 20.1764 118.815 19.5769 119.077 19.0824C119.336 18.5878 119.684 18.1756 120.119 17.8422C120.553 17.5087 121.059 17.2464 121.632 17.0478C122.206 16.8493 122.805 16.7031 123.423 16.602C124.045 16.5046 124.667 16.4409 125.301 16.4146C125.93 16.3884 126.522 16.3734 127.08 16.3734H127.912V16.0212C127.912 15.2119 127.624 14.6049 127.05 14.2003C126.477 13.7956 125.743 13.5933 124.855 13.5933C124.15 13.5933 123.495 13.7132 122.884 13.9567C122.273 14.2003 121.745 14.5262 121.299 14.9421L119.549 13.2411C120.291 12.503 121.157 11.9747 122.146 11.6487C123.135 11.3265 124.162 11.1616 125.218 11.1616C126.162 11.1616 126.96 11.2665 127.609 11.4726C128.257 11.6787 128.793 11.9447 129.22 12.2669C129.647 12.5892 129.973 12.9638 130.205 13.3872C130.437 13.8106 130.602 14.2377 130.703 14.6686C130.805 15.0995 130.865 15.5192 130.883 15.9238C130.902 16.3285 130.91 16.6844 130.91 16.9879V24.4328H127.908V22.6606ZM127.714 18.6402H127.02C126.556 18.6402 126.039 18.659 125.465 18.6927C124.892 18.7302 124.349 18.8126 123.839 18.9475C123.33 19.0824 122.899 19.2809 122.547 19.5395C122.194 19.8017 122.018 20.1652 122.018 20.6335C122.018 20.9408 122.086 21.1956 122.228 21.4016C122.367 21.6077 122.547 21.7838 122.771 21.9262C122.993 22.0686 123.244 22.1735 123.521 22.2372C123.798 22.3009 124.075 22.3308 124.356 22.3308C125.503 22.3308 126.353 22.0648 126.9 21.5365C127.447 21.0045 127.721 20.2813 127.721 19.3634V18.6402H127.714Z" fill="#686B6B"/>
<path d="M134.825 4.04651H138.16V24.4404H134.825V4.04651Z" fill="#686B6B"/>
<path d="M144.941 19.0974C145.054 20.0678 145.44 20.8247 146.11 21.3642C146.777 21.9038 147.583 22.1735 148.527 22.1735C149.363 22.1735 150.059 22.0087 150.625 21.6752C151.191 21.3418 151.686 20.9259 152.113 20.42L154.503 22.1735C153.724 23.1102 152.855 23.7734 151.892 24.1706C150.929 24.5678 149.917 24.7626 148.864 24.7626C147.864 24.7626 146.92 24.6015 146.032 24.2755C145.144 23.9533 144.372 23.4924 143.724 22.9004C143.075 22.3084 142.562 21.5928 142.18 20.7573C141.801 19.9217 141.61 18.9888 141.61 17.9659C141.61 16.943 141.801 16.0101 142.18 15.1745C142.558 14.339 143.072 13.6233 143.724 13.0313C144.372 12.4394 145.14 11.9785 146.032 11.6563C146.92 11.334 147.864 11.1692 148.864 11.1692C149.79 11.1692 150.636 11.3266 151.408 11.6413C152.176 11.956 152.836 12.4094 153.383 13.0051C153.93 13.5971 154.357 14.3315 154.661 15.2045C154.968 16.0775 155.118 17.0779 155.118 18.2132V19.1049H144.941V19.0974ZM151.775 16.6695C151.757 15.7178 151.45 14.9647 150.858 14.4177C150.266 13.8706 149.441 13.5934 148.385 13.5934C147.384 13.5934 146.594 13.8744 146.009 14.4289C145.425 14.9872 145.069 15.7328 144.938 16.6695H151.775Z" fill="#686B6B"/>
<path d="M158.501 11.4914H161.836V13.5409H161.892C162.263 12.784 162.791 12.1995 163.477 11.7874C164.162 11.3752 164.949 11.1654 165.837 11.1654C166.04 11.1654 166.242 11.1841 166.433 11.2179C166.628 11.2553 166.826 11.3003 167.029 11.3527V14.4813C166.751 14.4101 166.478 14.3502 166.208 14.3052C165.938 14.2603 165.676 14.2378 165.418 14.2378C164.638 14.2378 164.013 14.3764 163.54 14.6574C163.068 14.9384 162.709 15.2569 162.458 15.6166C162.207 15.9763 162.042 16.336 161.959 16.6957C161.877 17.0554 161.836 17.3251 161.836 17.505V24.4366H158.501V11.4914Z" fill="#686B6B"/>
<path d="M169.168 7.09266C169.168 6.57186 169.367 6.11849 169.764 5.72883C170.161 5.34291 170.667 5.14807 171.278 5.14807C171.888 5.14807 172.402 5.33166 172.821 5.7026C173.237 6.06978 173.447 6.53439 173.447 7.09266C173.447 7.65094 173.237 8.11179 172.821 8.48273C172.405 8.84991 171.892 9.03725 171.278 9.03725C170.667 9.03725 170.161 8.84242 169.764 8.4565C169.367 8.07058 169.168 7.61721 169.168 7.09266ZM169.644 11.4914H172.979V24.4404H169.644V11.4914Z" fill="#686B6B"/>
<path d="M179.757 19.0974C179.869 20.0678 180.255 20.8247 180.926 21.3642C181.593 21.9038 182.398 22.1735 183.342 22.1735C184.178 22.1735 184.875 22.0087 185.44 21.6752C186.006 21.3418 186.501 20.9259 186.928 20.42L189.318 22.1735C188.539 23.1102 187.67 23.7734 186.707 24.1706C185.744 24.5678 184.732 24.7626 183.68 24.7626C182.679 24.7626 181.735 24.6015 180.847 24.2755C179.959 23.9533 179.187 23.4924 178.539 22.9004C177.891 22.3084 177.377 21.5928 176.995 20.7573C176.617 19.9217 176.426 18.9888 176.426 17.9659C176.426 16.943 176.617 16.0101 176.995 15.1745C177.374 14.339 177.887 13.6233 178.539 13.0313C179.187 12.4394 179.955 11.9785 180.847 11.6563C181.735 11.334 182.679 11.1692 183.68 11.1692C184.605 11.1692 185.452 11.3266 186.224 11.6413C186.992 11.956 187.651 12.4094 188.198 13.0051C188.745 13.5971 189.172 14.3315 189.476 15.2045C189.783 16.0775 189.933 17.0779 189.933 18.2132V19.1049H179.757V19.0974ZM186.591 16.6695C186.572 15.7178 186.265 14.9647 185.673 14.4177C185.081 13.8706 184.257 13.5934 183.2 13.5934C182.2 13.5934 181.409 13.8744 180.824 14.4289C180.24 14.9872 179.884 15.7328 179.753 16.6695H186.591Z" fill="#686B6B"/>
<path d="M95.7046 37.7115H99.7324L105.094 52.1442L110.624 37.7115H114.405L106.458 56.8127H103.43L95.7046 37.7115Z" fill="#686B6B"/>
<path d="M124.045 53.8191L131.187 46.509V46.4566H124.379V43.8676H135.215V46.8088L127.991 54.2275H135.548V56.8165H124.045V53.8191Z" fill="#686B6B"/>
<path d="M146.998 55.033H146.916C146.433 55.7711 145.822 56.3069 145.084 56.6366C144.342 56.9701 143.529 57.135 142.637 57.135C142.026 57.135 141.427 57.0525 140.846 56.8914C140.262 56.7303 139.745 56.4867 139.291 56.1645C138.838 55.8423 138.471 55.4376 138.193 54.9506C137.916 54.4635 137.777 53.8977 137.777 53.2495C137.777 52.5489 137.905 51.9494 138.167 51.4548C138.426 50.9602 138.774 50.5481 139.209 50.2146C139.643 49.8811 140.149 49.6151 140.722 49.4203C141.296 49.2254 141.895 49.0756 142.513 48.9744C143.135 48.877 143.757 48.8133 144.391 48.7871C145.02 48.7608 145.612 48.7459 146.17 48.7459H147.002V48.3937C147.002 47.5844 146.714 46.9774 146.14 46.5727C145.567 46.1681 144.833 45.9657 143.945 45.9657C143.24 45.9657 142.585 46.0856 141.974 46.3292C141.363 46.5727 140.835 46.8987 140.389 47.3146L138.639 45.6135C139.381 44.8754 140.247 44.3471 141.236 44.0211C142.225 43.6989 143.252 43.5341 144.308 43.5341C145.252 43.5341 146.05 43.639 146.699 43.845C147.347 44.0511 147.883 44.3171 148.31 44.6394C148.737 44.9616 149.063 45.3363 149.295 45.7597C149.527 46.183 149.692 46.6102 149.793 47.0411C149.895 47.4719 149.955 47.8916 149.973 48.2962C149.992 48.7009 150 49.0568 150 49.3603V56.8052H146.998V55.033ZM146.803 51.0127H146.11C145.646 51.0127 145.129 51.0314 144.555 51.0651C143.982 51.1026 143.439 51.185 142.929 51.3199C142.42 51.4548 141.989 51.6534 141.637 51.9119C141.284 52.1742 141.108 52.5376 141.108 53.006C141.108 53.3132 141.176 53.568 141.318 53.7741C141.461 53.9801 141.637 54.1562 141.861 54.2986C142.083 54.441 142.334 54.5459 142.611 54.6096C142.888 54.6733 143.165 54.7033 143.446 54.7033C144.593 54.7033 145.443 54.4373 145.99 53.909C146.537 53.3769 146.811 52.6538 146.811 51.7358V51.0127H146.803Z" fill="#686B6B"/>
<path d="M157.193 45.6697H157.25C157.508 45.1301 157.969 44.6393 158.625 44.2009C159.28 43.7588 160.131 43.5415 161.169 43.5415C162.057 43.5415 162.814 43.6839 163.432 43.9724C164.054 44.2609 164.556 44.6393 164.946 45.1039C165.335 45.5723 165.612 46.1118 165.777 46.7225C165.946 47.3333 166.028 47.974 166.028 48.6371V56.8127H162.694V50.2558C162.694 49.8961 162.675 49.4952 162.637 49.0568C162.6 48.6147 162.503 48.2025 162.345 47.8166C162.188 47.4307 161.941 47.1047 161.607 46.8462C161.274 46.5839 160.82 46.4565 160.247 46.4565C159.692 46.4565 159.224 46.5464 158.842 46.7263C158.464 46.9061 158.149 47.1497 157.898 47.4532C157.647 47.7604 157.467 48.1088 157.354 48.506C157.242 48.9032 157.19 49.3153 157.19 49.7462V56.8127H153.855V36.4188H157.19V45.6697H157.193Z" fill="#686B6B"/>
<path d="M170.086 43.8638H173.421V45.9133H173.477C173.848 45.1565 174.376 44.572 175.062 44.1598C175.748 43.7477 176.534 43.5378 177.422 43.5378C177.625 43.5378 177.827 43.5566 178.018 43.5903C178.213 43.6278 178.412 43.6727 178.614 43.7252V46.8538C178.337 46.7826 178.063 46.7226 177.793 46.6777C177.524 46.6327 177.261 46.6102 177.003 46.6102C176.223 46.6102 175.598 46.7489 175.126 47.0299C174.653 47.3109 174.294 47.6294 174.043 47.989C173.792 48.3487 173.627 48.7084 173.544 49.0681C173.462 49.4278 173.421 49.6976 173.421 49.8774V56.809H170.086V43.8638Z" fill="#686B6B"/>
<path d="M189.51 55.033H189.427C188.944 55.7711 188.333 56.3069 187.595 56.6366C186.853 56.9701 186.04 57.135 185.148 57.135C184.538 57.135 183.938 57.0525 183.357 56.8914C182.773 56.7303 182.256 56.4867 181.802 56.1645C181.349 55.8423 180.982 55.4376 180.705 54.9506C180.427 54.4635 180.289 53.8977 180.289 53.2495C180.289 52.5489 180.416 51.9494 180.678 51.4548C180.937 50.9602 181.285 50.5481 181.72 50.2146C182.155 49.8811 182.66 49.6151 183.234 49.4203C183.807 49.2254 184.406 49.0756 185.025 48.9744C185.647 48.877 186.269 48.8133 186.902 48.7871C187.531 48.7608 188.123 48.7459 188.681 48.7459H189.513V48.3937C189.513 47.5844 189.225 46.9774 188.652 46.5727C188.078 46.1681 187.344 45.9657 186.456 45.9657C185.751 45.9657 185.096 46.0856 184.485 46.3292C183.874 46.5727 183.346 46.8987 182.9 47.3146L181.15 45.6135C181.892 44.8754 182.758 44.3471 183.747 44.0211C184.736 43.6989 185.763 43.5341 186.819 43.5341C187.764 43.5341 188.562 43.639 189.21 43.845C189.858 44.0511 190.394 44.3171 190.821 44.6394C191.248 44.9616 191.574 45.3363 191.806 45.7597C192.039 46.183 192.203 46.6102 192.305 47.0411C192.406 47.4719 192.466 47.8916 192.484 48.2962C192.503 48.7009 192.511 49.0568 192.511 49.3603V56.8052H189.51V55.033ZM189.315 51.0127H188.622C188.157 51.0127 187.64 51.0314 187.067 51.0651C186.493 51.1026 185.95 51.185 185.44 51.3199C184.931 51.4548 184.5 51.6534 184.148 51.9119C183.796 52.1742 183.62 52.5376 183.62 53.006C183.62 53.3132 183.687 53.568 183.829 53.7741C183.972 53.9801 184.148 54.1562 184.373 54.2986C184.594 54.441 184.845 54.5459 185.122 54.6096C185.399 54.6733 185.677 54.7033 185.958 54.7033C187.104 54.7033 187.955 54.4373 188.502 53.909C189.049 53.3769 189.322 52.6538 189.322 51.7358V51.0127H189.315Z" fill="#686B6B"/>
<path d="M206.932 54.8718H206.876C206.393 55.6624 205.744 56.2394 204.931 56.5991C204.115 56.9588 203.238 57.1386 202.294 57.1386C201.256 57.1386 200.334 56.9625 199.528 56.6141C198.723 56.2619 198.033 55.7823 197.46 55.1716C196.887 54.5608 196.449 53.8415 196.153 53.0134C195.857 52.1854 195.707 51.2974 195.707 50.3419C195.707 49.3903 195.864 48.4985 196.179 47.6705C196.494 46.8424 196.932 46.123 197.498 45.5123C198.063 44.9016 198.745 44.4182 199.54 44.0698C200.334 43.7176 201.207 43.5452 202.151 43.5452C202.781 43.5452 203.335 43.6089 203.819 43.7326C204.302 43.86 204.725 44.0211 205.096 44.2197C205.467 44.4182 205.782 44.6281 206.04 44.8529C206.299 45.0777 206.512 45.2987 206.681 45.5123H206.764V36.4188H210.098V56.8127H206.932V54.8718ZM199.038 50.3382C199.038 50.8403 199.124 51.3274 199.304 51.7957C199.48 52.2641 199.738 52.6762 200.083 53.0359C200.424 53.3956 200.836 53.6841 201.319 53.8977C201.803 54.115 202.346 54.2199 202.961 54.2199C203.571 54.2199 204.118 54.1112 204.602 53.8977C205.085 53.6803 205.493 53.3956 205.838 53.0359C206.183 52.6762 206.441 52.2641 206.617 51.7957C206.794 51.3274 206.88 50.844 206.88 50.3382C206.88 49.8361 206.79 49.349 206.617 48.8807C206.441 48.4123 206.183 48.0002 205.838 47.6405C205.493 47.2808 205.085 46.9923 204.602 46.7787C204.118 46.5614 203.575 46.4565 202.961 46.4565C202.35 46.4565 201.803 46.5652 201.319 46.7787C200.836 46.996 200.424 47.2808 200.083 47.6405C199.738 48.0002 199.48 48.4123 199.304 48.8807C199.128 49.349 199.038 49.8361 199.038 50.3382Z" fill="#686B6B"/>
<path d="M216.824 51.4736C216.936 52.444 217.322 53.2008 217.993 53.7404C218.66 54.2799 219.465 54.5497 220.409 54.5497C221.245 54.5497 221.942 54.3848 222.508 54.0513C223.073 53.7179 223.568 53.302 223.995 52.7962L226.386 54.5497C225.606 55.4864 224.737 56.1496 223.774 56.5467C222.811 56.9401 221.799 57.1387 220.747 57.1387C219.746 57.1387 218.802 56.9776 217.914 56.6516C217.026 56.3294 216.254 55.8685 215.606 55.2766C214.958 54.6846 214.444 53.9689 214.062 53.1334C213.684 52.2978 213.493 51.3649 213.493 50.342C213.493 49.3154 213.684 48.3862 214.062 47.5507C214.441 46.7151 214.954 45.9995 215.606 45.4075C216.254 44.8155 217.022 44.3546 217.914 44.0324C218.802 43.7102 219.746 43.5453 220.747 43.5453C221.672 43.5453 222.519 43.7027 223.291 44.0174C224.059 44.3321 224.718 44.7855 225.265 45.3813C225.812 45.9732 226.239 46.7076 226.543 47.5806C226.85 48.4536 227 49.454 227 50.5893V51.481H216.824V51.4736ZM218.738 37.7115L220.657 40.1395L222.575 37.7115H225.632L222.436 41.597H218.742L215.576 37.7115H218.738ZM223.658 49.0419C223.639 48.0902 223.332 47.3371 222.74 46.79C222.148 46.243 221.324 45.9658 220.267 45.9658C219.267 45.9658 218.476 46.2468 217.892 46.8013C217.307 47.3596 216.951 48.1052 216.82 49.0419H223.658Z" fill="#686B6B"/>
<path d="M78.9751 8.11182H39.7011V12.3607H78.9751V8.11182Z" fill="#009444"/>
<path d="M78.9751 55.0967H39.7011V59.3456H78.9751V55.0967Z" fill="#009444"/>
<path d="M39.274 31.6868H0V35.9356H39.274V31.6868Z" fill="#009444"/>
</svg>
