<svg width="219" height="63" viewBox="0 0 219 63" fill="none" xmlns="http://www.w3.org/2000/svg">
<path d="M27.7189 17.687C26.4862 18.3156 25.1993 18.7699 23.8582 19.0461C22.517 19.3259 21.1506 19.464 19.7553 19.464C18.2732 19.464 16.9031 19.2387 15.6524 18.7844C14.4017 18.3302 13.3208 17.6797 12.4099 16.8366C11.4989 15.9898 10.7868 14.965 10.2771 13.7622C9.76738 12.5593 9.51434 11.2147 9.51434 9.732C9.51434 8.24931 9.76738 6.90471 10.2771 5.70183C10.7868 4.49896 11.4989 3.47416 12.4099 2.62742C13.3208 1.78069 14.4017 1.13019 15.6524 0.679569C16.9031 0.225312 18.2732 0 19.7553 0C21.2735 0 22.6725 0.178069 23.9522 0.53784C25.2282 0.893978 26.3524 1.51177 27.3176 2.38394L24.3679 5.52377C23.7967 4.94958 23.1533 4.5135 22.4375 4.21551C21.7218 3.91751 20.8289 3.77215 19.7553 3.77215C18.8624 3.77215 18.0527 3.92115 17.3297 4.21551C16.6067 4.5135 15.985 4.92778 15.468 5.45835C14.9511 5.98892 14.5535 6.62125 14.2751 7.35533C13.9968 8.08941 13.8594 8.88163 13.8594 9.73564C13.8594 10.6078 13.9968 11.4073 14.2751 12.1305C14.5535 12.8537 14.9511 13.4824 15.468 14.0129C15.985 14.5435 16.6067 14.9578 17.3297 15.2558C18.0527 15.5538 18.8624 15.6991 19.7553 15.6991C20.6662 15.6991 21.4543 15.5974 22.1158 15.3975C22.7773 15.1976 23.3051 14.9905 23.6991 14.7833V11.7743H20.2939V8.00583H27.7189V17.687Z" fill="white"/>
<path d="M47.8682 23.5305H52.6398L57.3319 35.6719H57.3861L62.1578 23.5305H66.633L58.8032 42.0569H55.4522L47.8682 23.5305Z" fill="white"/>
<path d="M11.4411 59.2352L21.0639 48.0896H11.7881V44.4773H26.132V48.0896L16.6935 59.2352H26.4501V63.0037H11.4411V59.2352Z" fill="white"/>
<path d="M111.392 22.3458C109.05 23.5668 106.433 24.1774 103.537 24.1774C102.073 24.1774 100.725 23.9448 99.5031 23.4833C98.2776 23.0217 97.2257 22.3676 96.34 21.5209C95.4544 20.6741 94.764 19.6602 94.2615 18.4719C93.7626 17.2872 93.5096 15.968 93.5096 14.5217C93.5096 13.039 93.759 11.6907 94.2615 10.4806C94.7603 9.26682 95.4544 8.23475 96.34 7.38075C97.2257 6.52674 98.2776 5.86898 99.5031 5.40382C100.728 4.9423 102.073 4.70972 103.537 4.70972C104.983 4.70972 106.342 4.88052 107.611 5.21848C108.88 5.56009 110.015 6.16334 111.016 7.03551L108.522 9.49577C107.915 8.92159 107.177 8.4746 106.31 8.16207C105.442 7.84954 104.528 7.68964 103.563 7.68964C102.579 7.68964 101.69 7.86044 100.895 8.19841C100.099 8.54001 99.4163 9.00881 98.8451 9.61206C98.274 10.2153 97.8294 10.9167 97.5185 11.7198C97.204 12.5229 97.0485 13.3842 97.0485 14.3109C97.0485 15.3066 97.204 16.2224 97.5185 17.0582C97.8294 17.8941 98.274 18.6209 98.8451 19.2314C99.4163 19.8419 100.099 20.3216 100.895 20.6705C101.69 21.0194 102.579 21.1938 103.563 21.1938C104.419 21.1938 105.229 21.1138 105.988 20.9576C106.747 20.8013 107.423 20.5578 108.012 20.2235V15.8554H104.126V12.8718H111.392V22.3458Z" fill="white"/>
<path d="M123.405 21.9787H123.325C122.859 22.6946 122.27 23.2143 121.557 23.5341C120.842 23.8575 120.057 24.0174 119.197 24.0174C118.608 24.0174 118.029 23.9375 117.469 23.7812C116.905 23.625 116.406 23.3887 115.969 23.0762C115.531 22.7637 115.177 22.3712 114.91 21.8988C114.642 21.4263 114.508 20.8776 114.508 20.2489C114.508 19.5693 114.631 18.9879 114.884 18.5082C115.134 18.0285 115.47 17.6288 115.889 17.3053C116.309 16.9819 116.797 16.7239 117.35 16.5349C117.903 16.3459 118.481 16.2006 119.078 16.1025C119.678 16.008 120.278 15.9462 120.889 15.9208C121.496 15.8953 122.067 15.8808 122.606 15.8808H123.408V15.5392C123.408 14.7542 123.13 14.1655 122.577 13.773C122.024 13.3805 121.315 13.1843 120.458 13.1843C119.779 13.1843 119.146 13.3006 118.557 13.5368C117.968 13.773 117.458 14.0892 117.028 14.4926L115.34 12.8427C116.056 12.1268 116.891 11.6144 117.845 11.2982C118.799 10.9857 119.79 10.8258 120.809 10.8258C121.72 10.8258 122.49 10.9276 123.115 11.1274C123.741 11.3273 124.258 11.5853 124.67 11.8979C125.082 12.2104 125.396 12.5738 125.621 12.9844C125.845 13.3951 126.004 13.8094 126.101 14.2273C126.199 14.6452 126.257 15.0522 126.275 15.4447C126.293 15.8372 126.3 16.1824 126.3 16.4768V23.6976H123.405V21.9787ZM123.217 18.0794H122.548C122.1 18.0794 121.601 18.0976 121.048 18.1303C120.495 18.1666 119.97 18.2465 119.479 18.3774C118.987 18.5082 118.572 18.7008 118.232 18.9516C117.892 19.2059 117.722 19.5584 117.722 20.0127C117.722 20.3107 117.787 20.5578 117.924 20.7577C118.062 20.9576 118.232 21.1284 118.449 21.2664C118.662 21.4045 118.904 21.5063 119.172 21.5681C119.439 21.6299 119.707 21.6589 119.978 21.6589C121.084 21.6589 121.904 21.4009 122.432 20.8885C122.96 20.3725 123.224 19.6711 123.224 18.7808V18.0794H123.217Z" fill="white"/>
<path d="M130.078 3.92468H133.295V23.7048H130.078V3.92468Z" fill="white"/>
<path d="M139.838 18.5227C139.946 19.4639 140.319 20.198 140.966 20.7213C141.609 21.2446 142.386 21.5062 143.297 21.5062C144.103 21.5062 144.776 21.3463 145.322 21.0229C145.867 20.6995 146.345 20.2961 146.757 19.8055L149.063 21.5062C148.311 22.4147 147.472 23.058 146.543 23.4432C145.614 23.8284 144.638 24.0174 143.623 24.0174C142.657 24.0174 141.746 23.8611 140.89 23.5449C140.033 23.2288 139.288 22.7854 138.663 22.2112C138.038 21.6371 137.542 20.943 137.174 20.1326C136.809 19.3222 136.624 18.4173 136.624 17.4252C136.624 16.4295 136.809 15.5282 137.174 14.7178C137.539 13.9074 138.034 13.2133 138.663 12.6391C139.288 12.065 140.029 11.618 140.89 11.3054C141.75 10.9929 142.657 10.833 143.623 10.833C144.515 10.833 145.332 10.9856 146.077 11.2909C146.818 11.5962 147.454 12.0359 147.982 12.6137C148.51 13.1879 148.922 13.9002 149.215 14.7469C149.511 15.5936 149.656 16.5639 149.656 17.665V18.5299H139.838V18.5227ZM146.431 16.1714C146.413 15.2484 146.117 14.5179 145.546 13.9874C144.975 13.4568 144.179 13.1879 143.16 13.1879C142.195 13.1879 141.432 13.4568 140.868 13.9983C140.304 14.5397 139.961 15.2629 139.834 16.1714H146.431Z" fill="white"/>
<path d="M152.92 11.1455H156.137V13.1333H156.192C156.549 12.3993 157.059 11.8323 157.721 11.4326C158.382 11.0329 159.141 10.8293 159.998 10.8293C160.193 10.8293 160.388 10.8475 160.573 10.8802C160.761 10.9166 160.952 10.9602 161.148 11.011V14.0455C160.88 13.9764 160.616 13.9183 160.356 13.8747C160.096 13.8311 159.843 13.8093 159.593 13.8093C158.841 13.8093 158.238 13.9437 157.782 14.2163C157.327 14.4888 156.98 14.7977 156.737 15.1466C156.495 15.4955 156.336 15.8443 156.257 16.1932C156.177 16.5421 156.137 16.8037 156.137 16.9782V23.7012H152.92V11.1455Z" fill="white"/>
<path d="M163.212 6.87912C163.212 6.37398 163.403 5.93426 163.786 5.55632C164.17 5.18201 164.658 4.99304 165.247 4.99304C165.836 4.99304 166.331 5.17111 166.736 5.53088C167.137 5.88702 167.34 6.33764 167.34 6.87912C167.34 7.42059 167.137 7.86758 166.736 8.22735C166.335 8.58349 165.84 8.76519 165.247 8.76519C164.658 8.76519 164.17 8.57622 163.786 8.20191C163.403 7.82761 163.212 7.38789 163.212 6.87912ZM163.671 11.1455H166.888V23.7048H163.671V11.1455Z" fill="white"/>
<path d="M173.427 18.5227C173.536 19.4639 173.908 20.198 174.555 20.7213C175.199 21.2446 175.976 21.5062 176.887 21.5062C177.693 21.5062 178.365 21.3463 178.911 21.0229C179.457 20.6995 179.934 20.2961 180.346 19.8055L182.652 21.5062C181.901 22.4147 181.062 23.058 180.133 23.4432C179.204 23.8284 178.228 24.0174 177.212 24.0174C176.247 24.0174 175.336 23.8611 174.479 23.5449C173.622 23.2288 172.878 22.7854 172.252 22.2112C171.627 21.6371 171.132 20.943 170.763 20.1326C170.398 19.3222 170.214 18.4173 170.214 17.4252C170.214 16.4295 170.398 15.5282 170.763 14.7178C171.128 13.9074 171.623 13.2133 172.252 12.6391C172.878 12.065 173.619 11.618 174.479 11.3054C175.34 10.9929 176.247 10.833 177.212 10.833C178.105 10.833 178.922 10.9856 179.667 11.2909C180.408 11.5962 181.044 12.0359 181.572 12.6137C182.099 13.1879 182.511 13.9002 182.804 14.7469C183.101 15.5936 183.245 16.5639 183.245 17.665V18.5299H173.427V18.5227ZM180.021 16.1714C180.003 15.2484 179.706 14.5179 179.135 13.9874C178.564 13.4568 177.769 13.1879 176.749 13.1879C175.784 13.1879 175.021 13.4568 174.457 13.9983C173.894 14.5397 173.55 15.2629 173.424 16.1714H180.021Z" fill="white"/>
<path d="M92.3347 36.5803H96.2207L101.394 50.5787L106.729 36.5803H110.377L102.709 55.1068H99.7886L92.3347 36.5803Z" fill="white"/>
<path d="M119.678 52.1994L126.568 45.1094V45.0585H119.999V42.5474H130.454V45.4001L123.484 52.5955H130.775V55.1067H119.678V52.1994Z" fill="white"/>
<path d="M141.819 53.3769H141.739C141.273 54.0928 140.684 54.6125 139.972 54.9323C139.256 55.2557 138.471 55.4156 137.611 55.4156C137.022 55.4156 136.443 55.3357 135.883 55.1794C135.319 55.0231 134.82 54.7869 134.383 54.4744C133.946 54.1619 133.591 53.7694 133.324 53.297C133.056 52.8245 132.923 52.2758 132.923 51.6471C132.923 50.9675 133.045 50.3861 133.299 49.9064C133.548 49.4267 133.884 49.027 134.303 48.7035C134.723 48.3801 135.211 48.1221 135.764 47.9331C136.317 47.7441 136.895 47.5988 137.492 47.5007C138.092 47.4062 138.692 47.3444 139.303 47.3189C139.91 47.2935 140.481 47.279 141.02 47.279H141.822V46.9374C141.822 46.1524 141.544 45.5637 140.991 45.1712C140.438 44.7787 139.729 44.5825 138.873 44.5825C138.193 44.5825 137.56 44.6988 136.971 44.935C136.382 45.1712 135.872 45.4874 135.442 45.8908L133.754 44.2409C134.47 43.525 135.305 43.0126 136.259 42.6964C137.213 42.3839 138.204 42.224 139.223 42.224C140.134 42.224 140.904 42.3258 141.53 42.5256C142.155 42.7255 142.672 42.9835 143.084 43.296C143.496 43.6086 143.811 43.972 144.035 44.3826C144.259 44.7933 144.418 45.2076 144.515 45.6255C144.613 46.0434 144.671 46.4504 144.689 46.8429C144.707 47.2354 144.714 47.5806 144.714 47.875V55.0958H141.819V53.3769ZM141.634 49.4776H140.966C140.517 49.4776 140.019 49.4957 139.466 49.5284C138.912 49.5648 138.388 49.6447 137.897 49.7756C137.405 49.9064 136.989 50.099 136.65 50.3498C136.31 50.6041 136.14 50.9566 136.14 51.4109C136.14 51.7089 136.205 51.956 136.342 52.1559C136.48 52.3558 136.65 52.5265 136.866 52.6646C137.08 52.8027 137.322 52.9045 137.589 52.9663C137.857 53.028 138.124 53.0571 138.396 53.0571C139.502 53.0571 140.322 52.7991 140.85 52.2867C141.378 51.7707 141.642 51.0693 141.642 50.1789V49.4776H141.634Z" fill="white"/>
<path d="M151.658 44.2991H151.713C151.962 43.7758 152.407 43.2998 153.039 42.8746C153.672 42.4494 154.493 42.235 155.494 42.235C156.351 42.235 157.081 42.3731 157.677 42.6529C158.277 42.9327 158.762 43.2998 159.138 43.7504C159.514 44.2046 159.781 44.7279 159.94 45.3203C160.103 45.9126 160.182 46.5341 160.182 47.1773V55.1068H156.965V48.7472C156.965 48.3983 156.947 48.0095 156.911 47.5843C156.875 47.1555 156.781 46.7557 156.629 46.3814C156.477 46.0071 156.239 45.691 155.917 45.4402C155.595 45.1858 155.158 45.0623 154.605 45.0623C154.07 45.0623 153.618 45.1495 153.249 45.3239C152.884 45.4984 152.58 45.7346 152.338 46.0289C152.096 46.3269 151.922 46.6649 151.814 47.0501C151.705 47.4353 151.655 47.8351 151.655 48.253V55.1068H148.438V35.323H151.655V44.2991H151.658Z" fill="white"/>
<path d="M164.097 42.5438H167.314V44.5317H167.369C167.727 43.7976 168.236 43.2307 168.898 42.8309C169.559 42.4312 170.318 42.2277 171.175 42.2277C171.37 42.2277 171.566 42.2458 171.75 42.2785C171.938 42.3149 172.129 42.3585 172.325 42.4094V45.4438C172.057 45.3748 171.793 45.3166 171.533 45.273C171.273 45.2294 171.02 45.2076 170.77 45.2076C170.018 45.2076 169.415 45.342 168.959 45.6146C168.504 45.8872 168.157 46.1961 167.915 46.5449C167.672 46.8938 167.513 47.2427 167.434 47.5915C167.354 47.9404 167.314 48.202 167.314 48.3765V55.0995H164.097V42.5438Z" fill="white"/>
<path d="M182.837 53.3769H182.757C182.291 54.0928 181.702 54.6125 180.99 54.9323C180.274 55.2557 179.489 55.4156 178.629 55.4156C178.04 55.4156 177.461 55.3357 176.901 55.1794C176.337 55.0231 175.838 54.7869 175.401 54.4744C174.964 54.1619 174.609 53.7694 174.342 53.297C174.074 52.8245 173.941 52.2758 173.941 51.6471C173.941 50.9675 174.063 50.3861 174.317 49.9064C174.566 49.4267 174.902 49.027 175.321 48.7035C175.741 48.3801 176.229 48.1221 176.782 47.9331C177.335 47.7441 177.913 47.5988 178.51 47.5007C179.11 47.4062 179.71 47.3444 180.321 47.3189C180.928 47.2935 181.499 47.279 182.038 47.279H182.84V46.9374C182.84 46.1524 182.562 45.5637 182.009 45.1712C181.456 44.7787 180.747 44.5825 179.891 44.5825C179.211 44.5825 178.578 44.6988 177.989 44.935C177.4 45.1712 176.89 45.4874 176.46 45.8908L174.772 44.2409C175.488 43.525 176.323 43.0126 177.277 42.6964C178.231 42.3839 179.222 42.224 180.241 42.224C181.152 42.224 181.922 42.3258 182.548 42.5256C183.173 42.7255 183.69 42.9835 184.102 43.296C184.514 43.6086 184.829 43.972 185.053 44.3826C185.277 44.7933 185.436 45.2076 185.533 45.6255C185.631 46.0434 185.689 46.4504 185.707 46.8429C185.725 47.2354 185.732 47.5806 185.732 47.875V55.0958H182.837V53.3769ZM182.649 49.4776H181.98C181.532 49.4776 181.033 49.4957 180.48 49.5284C179.927 49.5648 179.403 49.6447 178.911 49.7756C178.419 49.9064 178.004 50.099 177.664 50.3498C177.324 50.6041 177.154 50.9566 177.154 51.4109C177.154 51.7089 177.219 51.956 177.357 52.1559C177.494 52.3558 177.664 52.5265 177.881 52.6646C178.094 52.8027 178.336 52.9045 178.604 52.9663C178.871 53.028 179.139 53.0571 179.41 53.0571C180.516 53.0571 181.337 52.7991 181.864 52.2867C182.392 51.7707 182.656 51.0693 182.656 50.1789V49.4776H182.649Z" fill="white"/>
<path d="M199.646 53.2207H199.592C199.125 53.9875 198.5 54.5472 197.716 54.896C196.928 55.2449 196.082 55.4193 195.171 55.4193C194.169 55.4193 193.28 55.2485 192.503 54.9106C191.726 54.569 191.061 54.1038 190.508 53.5115C189.954 52.9191 189.532 52.2214 189.246 51.4182C188.96 50.6151 188.816 49.7538 188.816 48.8272C188.816 47.9041 188.968 47.0392 189.271 46.2361C189.575 45.433 189.998 44.7352 190.544 44.1429C191.09 43.5505 191.747 43.0817 192.514 42.7437C193.28 42.4021 194.122 42.235 195.033 42.235C195.641 42.235 196.176 42.2968 196.642 42.4167C197.108 42.5402 197.517 42.6965 197.875 42.8891C198.233 43.0817 198.536 43.2852 198.786 43.5033C199.035 43.7213 199.241 43.9357 199.404 44.1429H199.483V35.323H202.701V55.1032H199.646V53.2207ZM192.029 48.8235C192.029 49.3105 192.113 49.7829 192.286 50.2372C192.456 50.6914 192.705 51.0912 193.038 51.4401C193.367 51.7889 193.765 52.0687 194.231 52.2759C194.697 52.4867 195.221 52.5884 195.814 52.5884C196.403 52.5884 196.931 52.483 197.398 52.2759C197.864 52.0651 198.258 51.7889 198.59 51.4401C198.923 51.0912 199.172 50.6914 199.342 50.2372C199.512 49.7829 199.595 49.3141 199.595 48.8235C199.595 48.3366 199.509 47.8641 199.342 47.4099C199.172 46.9556 198.923 46.5559 198.59 46.207C198.258 45.8581 197.864 45.5783 197.398 45.3712C196.931 45.1604 196.407 45.0586 195.814 45.0586C195.225 45.0586 194.697 45.164 194.231 45.3712C193.765 45.5819 193.367 45.8581 193.038 46.207C192.705 46.5559 192.456 46.9556 192.286 47.4099C192.116 47.8641 192.029 48.3366 192.029 48.8235Z" fill="white"/>
<path d="M209.189 49.9246C209.298 50.8658 209.67 51.5999 210.317 52.1232C210.961 52.6465 211.738 52.9081 212.649 52.9081C213.455 52.9081 214.127 52.7482 214.673 52.4248C215.219 52.1014 215.696 51.698 216.108 51.2074L218.414 52.9081C217.662 53.8167 216.824 54.4599 215.895 54.8451C214.966 55.2267 213.99 55.4193 212.974 55.4193C212.009 55.4193 211.098 55.263 210.241 54.9468C209.384 54.6343 208.64 54.1873 208.014 53.6131C207.389 53.039 206.894 52.3449 206.525 51.5345C206.16 50.7241 205.976 49.8192 205.976 48.8271C205.976 47.8314 206.16 46.9301 206.525 46.1197C206.89 45.3093 207.385 44.6152 208.014 44.041C208.64 43.4669 209.381 43.0199 210.241 42.7073C211.101 42.3948 212.009 42.2349 212.974 42.2349C213.867 42.2349 214.684 42.3875 215.428 42.6928C216.17 42.9981 216.806 43.4378 217.334 44.0156C217.861 44.5898 218.273 45.3021 218.566 46.1488C218.863 46.9955 219.007 47.9658 219.007 49.0669V49.9318H209.189V49.9246ZM211.036 36.5803L212.887 38.9352L214.738 36.5803H217.688L214.604 40.3488H211.04L207.985 36.5803H211.036ZM215.783 47.5661C215.765 46.643 215.468 45.9126 214.897 45.382C214.326 44.8514 213.531 44.5825 212.511 44.5825C211.546 44.5825 210.783 44.8514 210.219 45.3929C209.656 45.9344 209.312 46.6576 209.186 47.5661H215.783Z" fill="white"/>
<path d="M76.1944 7.8678H38.3032V11.9888H76.1944V7.8678Z" fill="white"/>
<path d="M76.1944 53.4388H38.3032V57.5599H76.1944V53.4388Z" fill="white"/>
<path d="M37.8911 30.7332H0V34.8542H37.8911V30.7332Z" fill="white"/>
</svg>
